<?xml version="1.0" encoding="utf-8"?>
<!-- Generator: Adobe Illustrator 27.7.0, SVG Export Plug-In . SVG Version: 6.00 Build 0)  -->
<svg version="1.1" xmlns="http://www.w3.org/2000/svg" xmlns:xlink="http://www.w3.org/1999/xlink" x="0px" y="0px"
	 viewBox="0 0 1000 1000" style="enable-background:new 0 0 1000 1000;" xml:space="preserve">
<style type="text/css">
	.st0{fill:#E98AFF;}
	.st1{display:none;}
	.st2{display:inline;fill:#041E79;}
	.st3{display:inline;fill:#377846;}
	.st4{display:inline;fill:#FCFFFD;}
	.st5{fill:#FCFFFD;}
	.st6{display:inline;fill:#F4FCFF;}
	.st7{display:inline;fill:#DDEDFF;}
	.st8{fill:#041E79;}
	.st9{display:none;fill:#FCFFFD;}
	.st10{fill:#377846;}
	.st11{fill:#F7FAFD;}
	.st12{fill:#F4FCFF;}
	.st13{fill:#E7EDFF;}
	.st14{fill:#FFFEFF;}
	.st15{fill:#F0EEFF;}
	.st16{fill:#F4F8FF;}
	.st17{fill:#E7EBF1;}
	.st18{fill:#EBF6F1;}
	.st19{fill:#E7ECF1;}
	.st20{fill:#DDE4FC;}
	.st21{fill:#EDF3F4;}
	.st22{fill:#E0E5ED;}
</style>
<g id="blackground">
	<rect width="1000" height="1000"/>
</g>
<g id="Layer_1">
	<circle class="st0" cx="500" cy="500" r="500"/>
</g>
<g id="backups" class="st1">
	<circle class="st2" cx="500" cy="500" r="500"/>
	<path class="st3" d="M857.3,120.2c0,0,22.5,114.5,33.7,167c11.2,52.6,58.1,230,140.5,188.9c53.2-26.6-43.7-205.8-43.7-205.8
		L857.3,120.2z"/>
	<path class="st3" d="M829.5,538.4c-35.2-10.2-99.1-58.1-107.2-79.9s-74-39.1-88.9-58s-64.9-1-94-17.4c-17.6-9.9-35.5-1.7-47,7.6
		c-11.9,9.6-28.2,11.7-42.2,5.5c-13.3-5.9-25.9-14.9-25.2-27.4c1.5-26-4.1-54.6-33.2-67.4c-1.6-0.7-3.1-1.3-4.5-1.9
		c-16.6-6.7-35.5-1.7-46.9,12c-5.6,6.8-13.2,12-22.1,8.3c-19.4-8.2-20.4-41.9-10.2-62.3c1-1.9,2.1-3.8,3.3-5.6
		c1.4-2,2.9-3.9,4.5-5.8c1.8-2,3.7-3.9,5.7-5.7c2.2-1.9,4.5-3.7,6.9-5.4c2.6-1.8,5.3-3.4,8.1-4.9c3-1.6,6.1-2.9,9.3-4.1
		c3.4-1.3,6.9-2.3,10.4-3.1c3.8-0.9,7.7-1.5,11.6-1.9c4.2-0.4,8.5-0.6,12.8-0.5c2.3,0.1,23.7,1.3,24.4,1.4c2.8,0.4,5.5,1,8.1,1.9
		c2.9,1,5.6,2.4,8,4.2c2.7,2,5.1,4.5,6.9,7.3c1.7,2.5,3,5.3,4,8.1c7.8,22.6,16.1,21.3,20,9.6s-8.5-34.3-7-44.5
		c1.5-10.2,16.7-5.7,30.4-7.9c6.1-2.9,14.1-6.1,24.5-10.2c52.7-20.9,64.5-55.1,70.1-72.5s66.3-17.9,83.5-26.7
		c28-14.3,25.6-27.7,24.8-40.7c-0.6-9.1-2.7-15.8-4.5-21.6C669,12.8,658.5,5,641.8,1.5L489.7-30.4c-4.9-1-10-1.1-14.9-0.3L331.2-7.5
		c-8.9,1.4-17.1,5.8-23.3,12.4c-17.5,18.7-55.4,62-92.1,123.5c-50,83.7-17.4,142.5-17.4,164.4s36.8,71.5,91.9,51.1
		s87.3,60.8,118.5,73.5c0.4,0.2,0.8,0.3,1.2,0.5c18.9,7.3,29.2,27.4,25,47.2c-4.4,20.6-3.2,51.1,10.6,96.4c0,0,16.9,49.5,40.9,90.9
		s49.5-3.1,44.9,65.4c-4.6,68.4-14.3,94.5-22.5,125.6c-8.2,31.1-7.7,109.3,6.1,105.7s19.9-24,36.8-52.1
		c16.9-28.1,36.8-38.8,56.2-42.9c19.4-4.1,30.1-37.3,39.8-44.9c8.8-6.9,47.4-22.3,70.1-58.6c4.8-7.7,12.2-13.5,20.7-16.6
		c14.4-5.2,36.5-14.3,50.1-25.9c21.4-18.4,28.1-43.9,28.6-64.3s2.6-38.8,24.5-63.3C863.7,555.8,864.7,548.7,829.5,538.4z"/>
	<path class="st4" d="M275.2,41.9c0,0-81.5,76.6,0,60.7s122.9,46.3,110.5-20.7c0,0-15.9-6.9-51.1-4.1c-35.2,2.7,31.1-25.2,70.1-27.5
		c39.1-2.3,67.1-2.6,106.7-4.6s38,7.9-39.3,41.9s-54.1,53.6-39.8,53.6s36-7.4,43.3-27.6s54.3-10.7,61.4,4.1s28.6,15.6,23.5-17.4
		s31.9-4.3,44.4-12.8c12.5-8.4,39.3-5.6,38.3,11c-1,16.6-32.2,12.5-54.6,16.9s46.5,74.6,54.7,28.6c0,0,0.7-15.6,25.5-4.6
		c0,0,14.3,31.4,38.3,39.3c24,7.9,25.5-4.1,24-18.4c-1.5-14.3-6.6-30.4,13.3-24c19.9,6.4,37.5-12.3,2-36.8
		C710.8,75,687.6,74.8,681.4,96c0,0,24.3,5.3,16.3,15.6c-7.9,10.2-32.2-4.8-34.2-8.9c-2-4.1-0.5-24.5,10.7-28.1
		c11.2-3.6,28.3,5.9,34.2-13.8c0,0,20.9-16.3-5.1-32.2s-205.8-46-205.8-46L275.2,41.9z"/>
	<path class="st5" d="M489.6,1019.5c0,0,26.6-24.7,61.4-32c0.2,0,0.4,0.1,0.3,0.3c-0.1,0.6-2.1,1.9-3.4,2.7
		c-6.5,4.4-8.8,8.1-16.7,20.6c-5.3,8.3-9.9,23.2-15.6,36L489.6,1019.5z"/>
	<path class="st6" d="M546.7,1013.2c0,0,116.2-45.2,139.8-64.1c23.5-18.9,94.7-54.8,22.2-52.2s-137.8,29.4-162,26.1
		c-24.2-3.3-6.5-37.2-52.2-44.4s-113.6-30-130.6-34c-17-3.9-37.2,0-34-15.7s9.1-42.5-23.5-6.5s58.8,35,40.5,44.4
		c-15.8,8.1-37.6-7.3-47.6-20.5s-10.3,14.4,0,25.2c10.3,10.8,49.4,16,53.7,24.6c4.3,8.6,18.7,23,23.4,23.4
		c4.6,0.3-5.5,1.8-20.3-10.6c-14.8-12.4-16.3,0.4-25.2,0c-8.9-0.4-29.5-7.2-45.5-31.8c-16-24.6-28.9-37.5-43.6-46.1
		s-29.5-37.5-47.3-55.3c-17.8-17.8-60.2-55.9-79.3-61.5c-19.1-5.5-27.4-1.8-47.9-19.1C46.5,678-3.6,594.4-3.6,582.7
		s23.4,84.8,23.4,84.8s46.7,56.9,64.5,78.1c17.8,21.2,49.5,36.6,81.7,64.5s82.4,37.8,90.4,73.1s5.5,39-8,32.6
		c-13.5-6.5-80.5-60.9-94.7-78.1c-14.1-17.2-51.8-56.1-84.5-83.7c-32.6-27.6,74,114.4,74,114.4L289,972.4l124.8,30.7L546.7,1013.2z"
		/>
	<path class="st7" d="M221.7,65.2c0,0-14.4,65.8-36.9,73.8c-22.4,8-33.8,19.7-32,33.8c1.8,14.1-26.7,34.4-34.4,32.6
		s-35,40.3-40.6,43c-5.5,2.8-38.1-4.3-38.1-4.3l91-95.9L221.7,65.2z"/>
</g>
<g id="finals">
	<circle class="st8" cx="500" cy="500" r="500"/>
	<path class="st9" d="M489.6,1019.5c0,0,26.6-24.7,61.4-32c0.2,0,0.4,0.1,0.3,0.3c-0.1,0.6-2.1,1.9-3.4,2.7
		c-6.5,4.4-8.8,8.1-16.7,20.6c-5.3,8.3-9.9,23.2-15.6,36L489.6,1019.5z"/>
	<path class="st10" d="M891,287.3c9.7,45.4,45.9,183.8,108.7,194.4c-4.5-125-54.9-238.3-134.9-323.6
		C872.3,196.2,883.9,254.1,891,287.3z"/>
	<path class="st10" d="M198.4,292.8c0,22,36.8,71.5,91.9,51.1s87.3,60.8,118.5,73.5c0.4,0.2,0.8,0.3,1.2,0.5
		c18.9,7.3,29.2,27.4,25,47.2c-4.4,20.6-3.2,51.1,10.6,96.4c0,0,16.9,49.5,40.9,90.9s49.5-3.1,44.9,65.4
		c-4.6,68.4-14.3,94.5-22.5,125.6c-8.2,31.1-7.7,109.3,6.1,105.7s19.9-24,36.8-52.1c16.9-28.1,36.8-38.8,56.2-42.9
		c19.4-4.1,30.1-37.3,39.8-44.9c8.8-6.9,47.4-22.3,70.1-58.6c4.8-7.7,12.2-13.5,20.7-16.6c14.4-5.2,36.5-14.3,50.1-25.9
		c21.4-18.4,28.1-43.9,28.6-64.3s2.6-38.8,24.5-63.3c22-24.5,23-31.7-12.3-41.9c-35.2-10.2-99.1-58.1-107.2-79.9s-74-39.1-88.9-58
		s-64.9-1-94-17.4c-17.6-9.9-35.5-1.7-47,7.6c-11.9,9.6-28.2,11.7-42.2,5.5c-13.3-5.9-25.9-14.9-25.2-27.4
		c1.5-26-4.1-54.6-33.2-67.4c-1.6-0.7-3.1-1.3-4.5-1.9c-16.6-6.7-35.5-1.7-46.9,12c-5.6,6.8-13.2,12-22.1,8.3
		c-19.4-8.2-20.4-41.9-10.2-62.3c1-1.9,2.1-3.8,3.3-5.6c1.4-2,2.9-3.9,4.5-5.8c1.8-2,3.7-3.9,5.7-5.7c2.2-1.9,4.5-3.7,6.9-5.4
		c2.6-1.8,5.3-3.4,8.1-4.9c3-1.6,6.1-2.9,9.3-4.1c3.4-1.3,6.9-2.3,10.4-3.1c3.8-0.9,7.7-1.5,11.6-1.9c4.2-0.4,8.5-0.6,12.8-0.5
		c2.3,0.1,23.7,1.3,24.4,1.4c2.8,0.4,5.5,1,8.1,1.9c2.9,1,5.6,2.4,8,4.2c2.7,2,5.1,4.5,6.9,7.3c1.7,2.5,3,5.3,4,8.1
		c7.8,22.6,16.1,21.3,20,9.6s-8.5-34.3-7-44.5c1.5-10.2,16.7-5.7,30.4-7.9c6.1-2.9,14.1-6.1,24.5-10.2
		c52.7-20.9,64.5-55.1,70.1-72.5s66.3-17.9,83.5-26.7c28-14.3,25.6-27.7,24.8-40.7c-0.5-8-2.2-14.1-3.8-19.5
		C620.2,11.1,561.4,0,500,0c-86.4,0-167.7,21.9-238.6,60.5c-14.3,19-30.1,41.8-45.7,67.9C165.7,212.1,198.4,270.9,198.4,292.8z"/>
	<path class="st11" d="M275.2,102.6c81.5-15.9,122.9,46.3,110.5-20.7c0,0-15.9-6.9-51.1-4.1c-35.2,2.7,31.1-25.2,70.1-27.5
		c39.1-2.3,67.1-2.6,106.7-4.6s38,7.9-39.3,41.9c-77.4,34-54.1,53.6-39.8,53.6c14.3,0,36-7.4,43.3-27.6c7.3-20.2,54.3-10.7,61.4,4.1
		s28.6,15.6,23.5-17.4s31.9-4.3,44.4-12.8c12.5-8.4,39.3-5.6,38.3,11c-1,16.6-32.2,12.5-54.6,16.9c-22.5,4.3,46.5,74.6,54.7,28.6
		c0,0,0.7-15.6,25.5-4.6c0,0,14.3,31.4,38.3,39.3c24,7.9,25.5-4.1,24-18.4s-6.6-30.4,13.3-24c19.9,6.4,37.5-12.3,2-36.8
		C710.8,75,687.6,74.8,681.4,96c0,0,24.3,5.3,16.3,15.6c-7.9,10.2-32.2-4.8-34.2-8.9c-2-4.1-0.5-24.5,10.7-28.1
		c11.2-3.6,28.3,5.9,34.2-13.8c0,0,6.2-4.8,7.6-11.7C650.7,17.6,577.4,0,500,0c-89.3,0-173,23.4-245.6,64.4
		C237.4,85.6,223.5,112.7,275.2,102.6z"/>
	<path class="st12" d="M708.6,897c-72.5,2.6-137.8,29.4-162,26.1c-24.2-3.3-6.5-37.2-52.2-44.4s-113.6-30-130.6-34
		c-17-3.9-37.2,0-34-15.7c3.3-15.7,9.1-42.5-23.5-6.5s58.8,35,40.5,44.4c-15.8,8.1-37.6-7.3-47.6-20.5c-9.9-13.2-10.3,14.4,0,25.2
		c10.3,10.8,49.4,16,53.7,24.6c4.3,8.6,18.7,23,23.4,23.4c4.6,0.3-5.5,1.8-20.3-10.6c-14.8-12.4-16.3,0.4-25.2,0
		c-8.9-0.4-29.5-7.2-45.5-31.8c-16-24.6-28.9-37.5-43.6-46.1s-29.5-37.5-47.3-55.3c-17.8-17.8-60.2-55.9-79.3-61.5
		c-19.1-5.5-27.4-1.8-47.9-19.1c-12.5-10.4-35.8-45.2-52.2-73.6c5.7,22.8,12.9,44.9,21.6,66.3c15.2,18.5,36.9,44.8,47.8,57.7
		c17.8,21.2,49.5,36.6,81.7,64.5s82.4,37.8,90.4,73.1c8,35.3,5.5,39-8,32.6c-13.5-6.5-80.5-60.9-94.7-78.1
		c-14.1-17.2-51.8-56.1-84.5-83.7c0,0,0,0,0,0C156.3,901.3,316.6,1000,500,1000c36.8,0,72.6-4,107.1-11.5
		c32.2-13.7,67.5-29.9,79.3-39.4C710,930.3,781.1,894.3,708.6,897z"/>
	<path class="st13" d="M77.8,248.3c5.5-2.8,32.9-44.9,40.6-43s36.3-18.4,34.4-32.6c-1.8-14.1,9.5-25.8,32-33.8
		c13.4-4.8,24-30.2,30.3-49.9c-60,41.7-110.5,96.2-147.4,159.6C72.4,249.1,76.2,249.1,77.8,248.3z"/>
</g>
<g id="features">
	<path class="st10" d="M441.1,273.2c-1.2-0.1-2.4-0.2-3.6-0.2c-5.9-0.1-22.5,0.2-29.7,6.2c-6.3,5.3-3.2,9.4,5,12.3
		c5.8,2,12,2.6,18.1,1.9c5.6-0.7,14-1.1,20.6,1c11.1,3.5,24.4,10.4,37.9,12.8c13.5,2.4,13.3-15.3,0-18.7
		C476.7,285.1,458.6,275.2,441.1,273.2z"/>
	<path class="st10" d="M529,304.5c0,0-23.6,0.3-20.2,9.3c3.4,9,10.1,16,23.4,13.5c13.3-2.5,20.2-3.8,21.1-13.3S529,304.5,529,304.5z
		"/>
	<path class="st14" d="M213.5,324.7c0,0-17.6,32.1-30.8,43.8s-32-20.9-27.7-43.8c4.3-22.9,5.2-35.5,17.2-41.6
		c12-6.1,55.3-16.6,60.2-5.5C237.4,288.6,224.4,314.7,213.5,324.7z"/>
	<path class="st15" d="M134.1,304.5c0,0-25.2,33-54.1,6.3c-28.9-26.7-10.8-28.6-5.5-32c5.2-3.4,12.9,24.6,34.4,15.4
		c21.5-9.2,27-16.3,29.5-12.9S148.5,290.2,134.1,304.5z"/>
	<path class="st16" d="M110.1,387.9c0,0,8.6-25.5,28.3-9.8s17.5,24,16,35.6s2.8,28.3-4.3,35.6s-41.5-5.8-40-18.4
		S111,398.6,110.1,387.9z"/>
	<path class="st17" d="M221.7,435.8c0,0,11.1-1.4,16.9-23.6s17.5-48.6,22.7-41.2s-3.7,63.3,8,64.9s70.7,35.3,51.6,40
		c-19.1,4.6-39.6,12-59.6,16C241.3,495.7,227.5,453.9,221.7,435.8z"/>
	<path class="st18" d="M396.8,469.7c4.2-6.1,7.3-12.9,8.6-20.2c2-11.3,8-23.8,26.4-11.4c29.6,20.1,25.3,0.9,26.8-5.2
		c1.5-6.1,16.9-11.6,22.1,2.2s-0.9,43.3-10.4,44.9s-34.8,3.5-37.7,6.2c-2.9,2.7-34.6,24.9-42.9,26.4
		C383,513.9,386.9,484,396.8,469.7z"/>
	<path class="st19" d="M779.2,671.2c0,0,11.7-4.6,17.2-24c5.5-19.4,9.3-24.1,21.1-9.3c11.8,14.8,34.1,22.5,39.8,24.7
		c5.8,2.2,19,16,31.3,24.6c12.3,8.6,16.6,38.4,6.1,38.7c-10.4,0.3-38.6,4.9-37.4-20.3c1.2-25.2-45.6-8-53.5,0
		c-8,8-40.3,24.9-38.1-0.6C767.8,679.5,779.2,671.2,779.2,671.2z"/>
	<path class="st20" d="M434.5,708.1c0,0,34.9-25.8,12.1-41.8s-18.7-46.1,3.7-44.9c22.4,1.2,32.3,28.3,61.5,34.4
		c29.2,6.1,38.1,40,29.5,57.8c-8.6,17.8-18.4,39-41.3,35C477.1,744.7,417.2,733,434.5,708.1z"/>
	<path class="st21" d="M386.4,593.8c0,0,34.7-3.1,33.8,13.5c-0.9,16.6,32,7.2,27-6.9c-4.9-14-14.4-25.1-30.7-29.4
		c-16.3-4.3-28-9.2-39.3-16c-11.4-6.8-38.4-21.8-55.9-5.5s5.8,50.4,24,52.2C363.4,603.6,380.5,596.8,386.4,593.8z"/>
	<path class="st22" d="M666.7,806.4c0,0-25.2-21.8-30.7-39.3c-5.5-17.5,50.4-6.6,59.6-3.1c9.3,3.5,23,22.1,30.1,27.7
		c7.1,5.5,8.9,11.7,27,5.5c18.1-6.1,29.9-5.2,12.8,14.8s-28.8,38.1-31.2,41.8c-2.5,3.7,38.4,8,45.5,0c7.1-8,7.7,3.1,4.9,12.9
		c-2.8,9.8-11.7,25.5-25.8,30.7c-14.1,5.2-43.3-8-62.1-4.9c-18.7,3.1-33.2,22.4-49.8,24c-16.6,1.5-50.7-6.5-48.6-32.6
		c2.2-26.1,29.5-43.3,43-44.3s55,19.4,53.5,6.1S690.3,824,666.7,806.4z"/>
</g>
<g id="reference" class="st1">
	
		<image style="display:inline;overflow:visible;" width="222" height="227" xlink:href="../references/earth_americas.jpeg"  transform="matrix(5.3122 0 0 5.3122 -114.1489 -77.8936)">
	</image>
</g>
</svg>
