<?xml version="1.0" encoding="utf-8"?>
<!-- Generator: Adobe Illustrator 27.7.0, SVG Export Plug-In . SVG Version: 6.00 Build 0)  -->
<svg version="1.1" id="finals" xmlns="http://www.w3.org/2000/svg" xmlns:xlink="http://www.w3.org/1999/xlink" x="0px" y="0px"
	 viewBox="0 0 1000 1000" style="enable-background:new 0 0 1000 1000;" xml:space="preserve">
<style type="text/css">
	.st0{fill:#99825F;}
	.st1{fill:#675B48;}
	.st2{fill:#B2A696;}
	.st3{fill:#DAD8E4;}
	.st4{fill:#C3B49F;}
	.st5{fill:#DED9AA;}
	.st6{fill:#D2903F;}
	.st7{fill:#D2AA5D;}
	.st8{fill:#934D42;}
	.st9{fill:#D6B69D;}
	.st10{fill:#CFB581;}
	.st11{fill:#A0936B;}
	.st12{fill:#F3F3E6;}
	.st13{fill:#A69B8E;}
	.st14{fill:#A08465;}
	.st15{fill:#CCBEBF;}
	.st16{fill:#807056;}
	.st17{fill:#D29086;}
	.st18{fill:#E0BCAB;}
	.st19{fill:#DC864D;}
	.st20{fill:#9C6C5F;}
	.st21{fill:#6C4D46;}
	.st22{fill:#866C5D;}
	.st23{fill:#F7F5F7;}
</style>
<path class="st0" d="M885.8,182C794.1,70.8,655.3,0,500,0C344.7,0,206,70.8,114.3,181.9C240.5,182,770.4,182.5,885.8,182z"/>
<path class="st1" d="M844,862.8l-670.3,16C261.3,954.4,375.3,1000,500,1000C633.3,1000,754.4,947.8,844,862.8z"/>
<path class="st2" d="M969,673.7L49.2,716.5c32.7,67.9,80.3,127.3,138.5,173.9c133.6-4.1,487.6-13.9,632.2-6.2
	C886.4,828.8,938.3,756.4,969,673.7z"/>
<path class="st3" d="M980.2,639.7C980.2,639.7,980.2,639.7,980.2,639.7l-961.4-3.3c13.1,46.2,32.7,89.7,57.7,129.5
	c73.2-6.1,213.3-18.3,328.9-30.9c164.6-17.9,177,26.5,332.2,9.3c79.5-8.8,151.2-10.1,203.4-8.5c1-1.9,2-3.8,3-5.7c0,0,0,0,0,0
	C958.9,701.5,971,671.3,980.2,639.7z"/>
<path class="st4" d="M1.2,534.7c3.3,48.3,13.5,94.7,29.5,138.2c75.3-1.2,220.4-1.8,309.7,8.8c124.9,14.8,438.7-1.1,506.4-20.8
	c60-17.4,86.7,26.3,111.2,39.8c23.8-54.3,38.3-113.7,41.3-176L1.2,534.7z"/>
<path class="st5" d="M998.1,456.3l-998,55.3c0.6,25.3,3,50.1,7.2,74.3c91.3-2.6,340.6-9.1,462-5.4c136.3,4.2,217.4,27.6,362.6,3.6
	c53.4-8.8,108-2.4,157.4,18.8c7-33.2,10.6-67.6,10.6-102.9C1000,485.3,999.4,470.7,998.1,456.3z"/>
<path class="st6" d="M998,454.6L0.7,474.1C0.2,482.7,0,491.3,0,500c0,11.6,0.4,23.1,1.2,34.4c64.7-1.4,233.4-4.8,381.3-4.8
	c187.5,0,327.1,0.8,354.8,0c24.1-0.7,194.7,16,262.7-18.9c0.1-3.5,0.1-7.1,0.1-10.7C1000,484.7,999.3,469.5,998,454.6z"/>
<path class="st7" d="M982.9,369.8L2.3,451.4C1,465,0.3,478.9,0.1,492.8c43.9,2,143.6,3.6,234.6-15.4c121-25.3,181.3,26.8,345.4,22.5
	s269.6-30.7,359.4-7.7c25.5,6.5,45.2,8.5,60.5,8c0-0.1,0-0.2,0-0.3C1000,455,994,411.3,982.9,369.8z"/>
<path class="st8" d="M261.9,447.1c117.5-10.9,259.5,9.3,304.2,6.8c44.7-2.5,274.3-18,315.1-10.1c23.7,4.6,76.3,5.2,116.3,4.9
	c-2.4-24-6.6-47.6-12.3-70.5L11,395.2c-4,18.9-7,38.3-8.8,58C50.8,454.2,170.5,455.6,261.9,447.1z"/>
<path class="st9" d="M528.7,419.1c52.1-1.9,191,12.4,273.1-3.1c54.8-10.4,141.1,0,192.5,8.1c-6.3-41.4-17.7-81.1-33.5-118.5
	L18.9,363.4c-5.1,18.1-9.3,36.7-12.4,55.6c80.8-0.5,266.7-2.9,322.2-14.7C400.3,389.2,476.6,421.1,528.7,419.1z"/>
<path class="st10" d="M563.3,243c-22.8-9.5-47.2-14.9-71.9-14.9c-0.3,0-0.6,0-0.9,0c-35.8,0-70.8,3.8-104.5,11
	c-3.6,0.8-7.3,1.5-10.9,2L44.9,292.6c-5.7,12.4-10.8,25.1-15.5,38c62.4-8.7,195.4-23.1,363.9-18.1c172.8,5.1,453.3,6.7,570.5,0.3
	c-7.3-18-15.6-35.5-24.8-52.5C842.4,200.4,670.8,287.5,563.3,243z"/>
<path class="st11" d="M64.9,253.5c-12.4,21.9-23.3,44.8-32.3,68.6c80-4.2,326-16.9,417.9-18.9c92-1.9,386.7,14.4,515.6,15.5
	c-11.6-29.9-26.1-58.4-43-85.2L64.9,253.5z"/>
<path class="st12" d="M283,354.2c133.7,7.2,203,14.7,385.8,7.3c124.9-5,242.1-17.7,303.8-25.3c0,0,0,0,0,0
	c-4.6-13.3-9.7-26.3-15.4-39.1c0,0,0-0.1,0-0.1c-3.4-7.6-7-15.2-10.7-22.6l-44.2-34.6L54.5,272.7c-15.7,30.7-28.3,63.3-37.5,97.3
	c30.5-3.5,87.9-6.8,152.3-9.9C200.3,358.7,242.7,352,283,354.2z"/>
<path class="st13" d="M88,216.6c-19.5,28.4-36.2,58.8-49.7,91c77.7-4.5,394.1-22.4,458.1-20c55.6,2.1,331.3,3.9,456.4,0.1
	c-19.1-40.8-43.6-78.5-72.6-112.4L88,216.6z"/>
<path class="st14" d="M585.1,225.4c164.6-12.1,236.1-2.7,199.2-23.3c-37-20.6-231.1,3.1-277.8,3.1s-48.1-13-71.5-11.5
	s-65.4,8-83.3,13.1c-16,4.5-175.2-1.5-247-12.9c-8,10.3-15.6,20.9-22.7,31.8C127.2,227.1,433,236.6,585.1,225.4z"/>
<path class="st15" d="M788.2,219.2c-271.6-45.1-557.6-19.1-702,0.1c-11.9,17.4-22.6,35.7-32.2,54.6
	C239.4,274.8,1133.4,276.5,788.2,219.2z"/>
<path class="st16" d="M922.3,232.3c-18.4-28.9-39.6-55.8-63.3-80.2l-727.9,10.4c-21.5,23.5-40.8,49.1-57.6,76.4
	C219,239.8,789.9,242.7,922.3,232.3z"/>
<g id="features">
	<path class="st17" d="M885.8,636.4c-73.3,4.7-241.3,29.5-269.6-33.5c0,0-19.6-30.9-45.2-16c-25.6,14.9,7.5,51.1,31.6,62
		c24.1,10.9,43.9,45,77.1,38.2c33.2-6.8,105.8-2.1,132.6-16.2c26.8-14.1,96-6.9,105.9-0.1c6.2,4.3,37.5-11.1,59.5-22.9
		c1.4-4.5,2.7-8.9,3.9-13.4C963,633.8,930.4,633.5,885.8,636.4z"/>
	<path class="st18" d="M500.4,641.3c0,0,45-35.3,88.6-9.7c43.6,25.5,48.8,61.1,27.3,76.3c-21.5,15.2-56.5,31.8-86.3,29.2
		c-29.8-2.6-37.8-35.6-49.3-46.5c-7.4-7-10.7-24.2-6.3-29.7C483.6,649.2,492.1,645.6,500.4,641.3z"/>
	<path class="st19" d="M601.8,684.5c-5.2-17.5-22.6-35.5-50.7-35.5c-28.1,0-54.1,13.8-54.1,36.4c0,22.6,12.1,40.6,53.9,40
		C579,724.9,608.2,706.1,601.8,684.5z"/>
	<path class="st20" d="M142,378.7c0.1-7-4.1-12.3-22.8-12.4c-14.1-0.1-25.4,7-25.4,14.1s10.9,15.7,25,15.7S141.8,390.2,142,378.7z"
		/>
	<path class="st21" d="M288.2,388.7c0-6.2-3.2-11.1-17-11.1s-27.1,5.6-27.1,11.7c0,6.2,5.2,10.6,19.1,10.6S288.2,394.8,288.2,388.7z
		"/>
	<path class="st20" d="M632.4,383.2c0-3.9-1.4-7-15.3-7.1c-8.5-0.1-17,1.9-16.9,5.8c0.1,6.9,8.5,8.6,16.9,8.5
		C631.9,390.1,632.4,387.2,632.4,383.2z"/>
	<path class="st22" d="M865.2,379.5c-0.3-4.8-11.9-6.6-18.9-6.5c-9.9,0.2-17.9,3.9-17.9,8.7c0,6.4,8,8.7,17.9,8.7
		S865.8,386.7,865.2,379.5z"/>
	<path class="st23" d="M511.2,589.9c-9.2-6.5-22-2-54.2,12c-26.4,11.5-45.8,34.9-26.1,54.4c11.6,11.5,32.7,0.3,54.9-18
		C508,619.9,524.5,599.3,511.2,589.9z"/>
</g>
</svg>
