<?xml version="1.0" encoding="utf-8"?>
<!-- Generator: Adobe Illustrator 27.7.0, SVG Export Plug-In . SVG Version: 6.00 Build 0)  -->
<svg version="1.1" xmlns="http://www.w3.org/2000/svg" xmlns:xlink="http://www.w3.org/1999/xlink" x="0px" y="0px"
	 viewBox="0 0 1000 1000" style="enable-background:new 0 0 1000 1000;" xml:space="preserve">
<style type="text/css">
	.st0{fill:#C47839;}
	.st1{fill:#D27B31;}
	.st2{fill:#A46937;}
	.st3{fill:#8C5C36;}
	.st4{fill:#6D4B35;}
	.st5{fill:#8E5E36;}
	.st6{fill:#6B4C35;}
	.st7{fill:#FFFBFF;}
	.st8{fill:#66483D;}
	.st9{fill:#AE692D;}
	.st10{fill:#AD6527;}
	.st11{fill:#6D4C34;}
	.st12{fill:#956237;}
</style>
<g id="finals">
	<circle class="st0" cx="500" cy="500" r="500"/>
	<path class="st1" d="M145.5,782.5c8.1-17.1,32.6-79.3,88.9-77.9c153.5,3.8,264.4-16.6,242.1-100.2c-22.8-85.9,41-181.9,5.5-255.2
		c-49.8-102.9-197.7-95.9-173.8-162c25.5-70.6,20.9-118,1.6-149.6C128,112.3,0,291.2,0,500c0,93.3,25.5,180.6,70,255.3
		c19.4,8.6,36.5,14.7,48,15.8C124.1,771.7,143.3,787.1,145.5,782.5z"/>
	<path class="st2" d="M1000,500c0-134.3-53-256.3-139.2-346.1c-11,50.2-29.2,116.6-51.8,135.9C771.2,322,774,468,719.9,528.2
		c-40.4,44.9-54.1,86.4-181.9-53.3c-87.6-95.8-186.4,14.1-163.6,59.9c22.8,45.7,147,239.3,152.1,277.8c2.1,16.2,2.9,19.5-21.7,49.9
		c-18.2,22.4-45.5,93.6-22.6,137.2c5.9,0.2,11.8,0.3,17.8,0.3C776.1,1000,1000,776.1,1000,500z"/>
	<path class="st3" d="M210.7,144.7c-28.1,28.6-89.3,90.4-9,69.6c80.3-20.8,108.4,44.4,205.6,43.8c97.2-0.6,137.1-98.9,65.3-90.5
		s-93.4-23-93.4-23c1.9-61.3-72.5-33.2-93.5-24.1c-3.8,1.7-8.2,1.5-11.9-0.5c-27.1-14.4-18-41.5-1.9-65.2
		c-23.1,11.9-45.2,25.5-66.1,40.7C221.6,109.3,230.7,124.3,210.7,144.7z"/>
	<path class="st4" d="M985.1,589.4c-9.8,12.2-28.1-48.1-49.4-60.3c-21.3-12.2-25.1,60.3-25.1,60.3c-13.5,38.3-27.8,42.5-31.8,67.1
		c-9.2,56.5,37.9,32.8,65.7,16.3c13.7-8.2,26.1-20.5,35.2-30.9c4.8-16.4,8.8-33.1,12-50.1C990.2,587.4,988.1,585.6,985.1,589.4z"/>
	<path class="st5" d="M174.2,799.9c-20.7-36.5-88.5-62.6-120-73.1c32.3,63.5,77.8,119.1,132.9,163.3
		C192.3,870,193.9,834.5,174.2,799.9z"/>
</g>
<g id="features">
	<path class="st6" d="M509.3,215.2c0,0-115.7-36-36.8-47.5s136.3-28.3,163.9-42.9s62,68.2,127.1,62.8c65.1-5.4,68.9,80.4,24.5,85.8
		s30.6,108.8-9.2,160.9s-66.6,57.4-104.2,36.8c-20.9-11.5-38-24.2-54-40.2c-22.4-22.3-35.7-52.1-37.7-83.6c-1.1-18-4.9-31.4-15.5-11
		c-20.7,39.8-32.5,58-39.8,39.8c-4.8-11.9,39.8-76.4,33.7-110.3C552.8,217.6,509.3,215.2,509.3,215.2z"/>
	<path class="st7" d="M529.9,10.7c0,0,44.3-5.3,64,21.9s-14.2,30.5-23.7,31.6c-9.4,1.1-59.2-3.1-53.5-9.2c5.7-6.1,41-18.2,21.9-17.7
		c-19.1,0.6-36.2,23.1-46,29.1s-58.1-7.5-57.4-23.7c0.7-16.2,19.3-28.3,42.5-30.2S529.9,10.7,529.9,10.7z"/>
	<path class="st7" d="M487.6,7.3c0,0,20.4,0.2,25.6-0.9c5.2-1.1,0.2-2.9-5.4-3.5c-5.6-0.6-34.8-2.1-51.8,0s-57.3,12.3-64.8,18.2
		s6.7,5.7,14.7,1.1s23-9.3,35.5-11.9S470,4.4,487.6,7.3z"/>
	<path class="st8" d="M517.7,867.1c1.2-4.8,4-9,7.6-12.4c3.5-3.3,7.3-13.2,1.3-42.1c-9.3-44.5,73.8-65,93.3-59.2
		c19.4,5.8,47.6,41.4,28,88c-0.3,0.7-0.4,1.6-0.3,2.4c0.7,3.1,5.9,7,38.5-18.5c42.1-33,2.8,53.8-19.3,57.8
		c-22.1,4-51.7-17.4-84.1-9.8C553.2,880.1,510,897.3,517.7,867.1z"/>
	<path class="st9" d="M145.6,531c0,0-2.1,30.2,13.9,12.8c16.1-17.4,13.7-26.1,2.7-34.6C151.2,500.6,145.8,522.5,145.6,531z"/>
	<path class="st10" d="M91,593.3c0,0-0.2-12.2,7.4-12.8c7.5-0.6,11.8,3.1,13.2,11.2c1.4,8.1-2.9,22.4-10.3,21.3S91.2,605.9,91,593.3
		z"/>
	<path class="st11" d="M450.8,419.6c-0.6-2,0.4-4.1,2-5.2c8.3-5.8,39.2-23.9,73.8-1.3c40.5,26.4,48.4,29.9,46.8,45.3
		c-1.6,15.5-24.6,69.8-49.7,37.4c-25-32.4-0.2-40.3-31.7-60.4C464.5,417.8,452.5,425.7,450.8,419.6z"/>
	<path class="st12" d="M397.2,580.5c0,0-49.6-54.9-7.5-107.5s117.2-9.3,116.5,34.2s12.4,92.8,10.2,112.6
		c-1.9,17.3-54.5,126.7-77.8,83.9C415.3,660.8,417.5,609,397.2,580.5z"/>
</g>
</svg>
