<?xml version="1.0" encoding="utf-8"?>
<!-- Generator: Adobe Illustrator 27.7.0, SVG Export Plug-In . SVG Version: 6.00 Build 0)  -->
<svg version="1.1" id="Layer_1" xmlns="http://www.w3.org/2000/svg" xmlns:xlink="http://www.w3.org/1999/xlink" x="0px" y="0px"
	 viewBox="0 0 1000 1000" style="enable-background:new 0 0 1000 1000;" xml:space="preserve">
<style type="text/css">
	.st0{fill:#909090;}
	.st1{fill:#646464;}
	.st2{fill:#C8C8C8;}
</style>
<circle class="st0" cx="500" cy="500" r="500"/>
<path class="st1" d="M614.4,13.1C596.3,82.3,566.2,275.8,764,358c124.4,51.7,194.3,75.4,232.9,86.2
	C973.4,232.5,817.8,60.7,614.4,13.1z"/>
<path class="st1" d="M90,395c-50,150.5,43.5,265,97.4,285s44.6-72.5,91.6-96s20.5-97.5-28-189s110-43.5,76-147
	c-19-57.8-105.3-88.4-177.8-104.3c-17.7,17.4-34.1,36.1-49,56c2.7,10.4,4.3,19.9,5.9,26.9C111.5,250.9,140,244.5,90,395z"/>
<path class="st1" d="M946,486c-51.5,56.5-57,349-112,304s-102.5,31.5-89,101c3.1,15.9,8,27.9,13.8,36.9
	c57.9-35.1,108.1-81.6,147.5-136.4c3.3-17.4,10.5-40.5,24.8-70.6C971.5,635.5,997.5,429.5,946,486z"/>
<path class="st1" d="M556.5,868c27.3-23.4,43.7-57.1,45.1-93c1.3-34.3,8.9-82.3,35.4-130c49.5-89,75.1-112.9,54.5-173
	C675,424,641,395,522,420s-129.5,98-139,177s-90.6,97.9-105,148c-18,62.5,46,154.5,142,164C487.1,915.6,521.8,897.8,556.5,868z"/>
<path class="st2" d="M756,708c0,0,0,80-53,52s-3.5-96.8,20.7-97.4C748,662,755,686.5,756,708z"/>
<path class="st2" d="M494.5,248.1c12.3-0.8,24.7-0.4,37,1.1c16.8,1.9,40.1,0.6,37.5-22.4c-4-35.7-37-30.7-37-11.7s-72.5-18.5-77,10
	C451.5,247.1,471.4,249.6,494.5,248.1z"/>
<path class="st2" d="M337,198.7c-0.9,12.4-10.6,22.6-22.9,23.9c-8.4,0.9-15.9-2.1-12.1-17.6C308.3,179.1,338.7,173.8,337,198.7z"/>
<path class="st2" d="M695.8,419.7c-3.9-2.6-5.4-7.5-3.5-11.8c6-13.6,26.2-40.1,88.7-11.9C857.4,430.4,733.6,444.5,695.8,419.7z"/>
</svg>
