<?xml version="1.0" encoding="utf-8"?>
<!-- Generator: Adobe Illustrator 27.7.0, SVG Export Plug-In . SVG Version: 6.00 Build 0)  -->
<svg version="1.1" xmlns="http://www.w3.org/2000/svg" xmlns:xlink="http://www.w3.org/1999/xlink" x="0px" y="0px"
	 viewBox="0 0 1000 1000" style="enable-background:new 0 0 1000 1000;" xml:space="preserve">
<style type="text/css">
	.st0{fill:#2840D7;}
	.st1{fill:#212F98;}
	.st2{fill:#3E6CFF;}
	.st3{fill:#3C69FF;}
	.st4{fill:#2439B0;}
	.st5{fill:#233BC3;}
	.st6{fill:#4C7BFF;}
	.st7{fill:#2844D6;}
	.st8{fill:#89C5FF;}
	.st9{fill:#75B2FF;}
	.st10{fill:#83CFFF;}
</style>
<g id="finals">
	<circle class="st0" cx="500" cy="500" r="500"/>
	<path class="st1" d="M669,916.8c0-52.8-95.7-95.7-213.9-95.7S241.3,864,241.3,916.8c0,4.1,0.6,8.2,1.7,12.1
		c75.1,45.1,163,71,257,71c29.1,0,57.6-2.5,85.3-7.3C636.2,975.3,669,947.8,669,916.8z"/>
	<path class="st2" d="M961.4,307C861,242.2,687.4,199.5,490,199.5c-178.6,0-337.7,35-440.8,89.7c-30.6,62-48.1,131-49.2,203.6
		c0,0.1,0,0.1,0,0.2c0,2.3-0.1,4.7-0.1,7c0,18.7,1.1,37.1,3.2,55.2c97.4,70.6,278.9,118.1,486.8,118.1
		c224.5,0,418.3-55.4,508.5-135.5c0.9-12.5,1.4-25.1,1.4-37.9C1000,431.6,986.3,366.4,961.4,307z"/>
	<path class="st3" d="M998.6,462.1c-89.2-87-284.8-147.4-511.9-147.4c-204.9,0-384.2,49.2-482.8,122.7C1.3,457.9,0,478.8,0,500
		c0,83.6,20.5,162.3,56.8,231.6c103.3,54.8,257.6,89.6,429.9,89.6c194.7,0,366.4-44.4,467.6-112c29.4-63.7,45.8-134.5,45.8-209.2
		C1000,487.2,999.5,474.6,998.6,462.1z"/>
	<path class="st4" d="M956.1,705.1c-98.9-46.2-258.8-76.3-439.3-76.3c-198.1,0-371.4,36.2-466.4,90.3
		C108,837,210.6,928.9,335.8,972.4c57,16.1,117.8,25.6,181,27.3C712.7,993.2,880,874.1,956.1,705.1z"/>
	<path class="st5" d="M470.2,826c-127,0-235,29.6-274.4,70.9C280.1,961.6,385.6,1000,500,1000c95.3,0,184.5-26.7,260.3-73
		C753.9,870.8,626.5,826,470.2,826z"/>
</g>
<g id="features">
	<path class="st6" d="M665.6,76.9c-47.5-11.2-115.7-17.8-191.5-16.3c-91.3,1.8-231.9,19.7-256.1,46.6
		c46.7-19.3,176.6-33.1,329.6-33.1C589.1,74.1,628.8,75.1,665.6,76.9z"/>
	<path class="st7" d="M467.3,355.4c0,0,125.9,14.6,180.2,35.4c51.2,19.6,107.3,68.3,35.4,84c-71.9,15.6-245.7-7.5-286.3-18.5
		c-40.6-11-85.8-42.3-70.7-70.7C341,357.1,415.2,351.9,467.3,355.4z"/>
	<path class="st8" d="M489.3,367.3c4.1,1.8,8.6,2.9,13.1,3.4c12.4,1.2,42.4,3.9,61.1,3.7c24.1-0.3,54,16.9,62,20.7
		c2.6,1.2-14.7-15.5-28.7-20.2c-16.1-5.4-48.4-15.1-76.8-12.3C503.2,364.3,474.9,360.9,489.3,367.3z"/>
	<path class="st9" d="M664.2,500c0,0,68.6,30.9,94.8,20c26.2-10.9-36.3-10.1-51.9-14.3C691.5,501.5,638.8,483.2,664.2,500z"/>
	<path class="st10" d="M462.8,415.9c-2.6-7.1-6.2-13.7-11-19.5c-4-4.9-8.6-8.9-12.2-7.7c-13.5,4.5-22.2,21.2,0,35.5
		c22.2,14.3,52.1,29.7,60.4,24.9C508.6,444,476,452,462.8,415.9z"/>
	<path class="st8" d="M497.9,480c0,0,25.7,10,62,10.3c36.3,0.3,10.9-16.9-18.5-19.6c-29.4-2.6-70.6-1.6-55.9-11.7
		c14.6-10.1-17.9-5.6-26.1-6.4s-27.3-11.6-37.6-2.9c-10.3,8.7,17.2,23.3,33.4,23.6C471.2,473.7,497.9,480,497.9,480z"/>
</g>
</svg>
