<?xml version="1.0" encoding="utf-8"?>
<!-- Generator: Adobe Illustrator 27.7.0, SVG Export Plug-In . SVG Version: 6.00 Build 0)  -->
<svg version="1.1" id="finals" xmlns="http://www.w3.org/2000/svg" xmlns:xlink="http://www.w3.org/1999/xlink" x="0px" y="0px"
	 viewBox="0 0 2300 1000" style="enable-background:new 0 0 2300 1000;" xml:space="preserve">
<style type="text/css">
	.st0{fill:#7B8390;}
	.st1{fill:#9A9C89;}
	.st2{fill:#B5A78C;}
	.st3{fill:#7A6048;}
	.st4{fill:#FFF6B4;}
	.st5{fill:#F8D386;}
	.st6{fill:#B87852;}
	.st7{fill:#BD8D6E;}
	.st8{fill:#C8A47C;}
	.st9{fill:#CDAB82;}
	.st10{fill:#BE9D79;}
	.st11{fill:#A8856C;}
	.st12{fill:#B9A57F;}
	.st13{fill:#8E7A63;}
	.st14{fill:#705D4C;}
	.st15{fill:#513C31;}
	.st16{fill:#A9A29F;}
	.st17{fill:#D6D4D8;}
	.st18{fill:#EBEFF2;}
	.st19{fill:#C5C7D0;}
	.st20{fill:#827F7D;}
	.st21{fill:#7F7C79;}
</style>
<g>
	<circle class="st0" cx="1150" cy="500" r="500"/>
	<path class="st1" d="M1512.6,844.2c-26.6-45.4-189.5-80.3-386.6-80.3c-161.6,0-300.2,23.5-359.6,57c37.7,45,83.2,83.3,134.3,112.7
		c63.6,10.8,141.3,17.1,225.2,17.1c120.4,0,228-13,299.6-33.5C1457.4,896.2,1486.6,871.7,1512.6,844.2z"/>
	<path class="st2" d="M1140.2,616.4c-199.1,0-370.9,32.3-450.6,78.9c25.3,59.6,61.9,113.3,107,158.4c89.4,23.5,210.4,38,343.6,38
		c147.2,0,279.6-17.7,370.8-45.7c39.2-40.9,71.5-88.4,95.1-140.7C1534.8,653.3,1353.1,616.4,1140.2,616.4z"/>
	<path class="st3" d="M1571.8,768.6c0.2-0.3,0.4-0.7,0.7-1c1-1.5,1.9-3,2.8-4.5c0.3-0.5,0.6-0.9,0.8-1.4c0.9-1.4,1.7-2.9,2.6-4.3
		c0.3-0.5,0.6-1,0.9-1.4c0.9-1.5,1.7-2.9,2.6-4.4c0.3-0.4,0.5-0.9,0.8-1.3c0.9-1.6,1.9-3.2,2.8-4.8c0.2-0.3,0.3-0.6,0.5-0.9
		c3.3-5.9,6.5-11.8,9.6-17.9c0.1-0.2,0.2-0.4,0.3-0.6c0.9-1.8,1.8-3.6,2.7-5.3c0.2-0.4,0.3-0.7,0.5-1.1c0.8-1.7,1.6-3.3,2.4-5
		c0.2-0.4,0.4-0.8,0.6-1.2c0.8-1.7,1.6-3.3,2.3-5c0.2-0.3,0.3-0.7,0.5-1c0.8-1.8,1.7-3.7,2.5-5.5c0.1-0.2,0.2-0.3,0.2-0.5
		c3.7-8.4,7.1-16.8,10.4-25.4c0.1-0.1,0.1-0.3,0.2-0.4c0.7-2,1.5-4,2.2-6c0.1-0.2,0.2-0.4,0.2-0.7c0.7-2,1.4-3.9,2.1-5.9
		c0.1-0.2,0.1-0.4,0.2-0.6c0.7-2.1,1.4-4.2,2.1-6.4c0,0,0,0,0,0c3.6-11,6.9-22.3,9.7-33.6c0,0,0-0.1,0-0.1c0.6-2.2,1.1-4.5,1.6-6.7
		c0,0,0-0.1,0-0.1c3.8-16,6.8-32.3,9-48.9c-103.8-40.5-274.7-66.9-467.9-66.9c-229.8,0-428,37.4-519.3,91.4
		c12.5,67.8,38.6,130.7,75.5,186c107,30.9,272.4,39.5,443.9,39.5c151,0,288.3-16.1,390.6-42.5c0,0,0,0,0,0
		C1569.5,772.2,1570.6,770.4,1571.8,768.6z"/>
	<path class="st4" d="M1141.6,432.4c-212.9,0-397.8,26-491.6,64.3c0,1.1,0,2.2,0,3.3c0,40,4.7,79,13.6,116.3
		c97.4,35.4,275,59.1,478,59.1c216.6,0,404.3-27,496.4-66.3c7.5-33.8,11.6-68.9,11.9-105C1562.8,461.8,1368,432.4,1141.6,432.4z"/>
	<path class="st5" d="M1583.7,251c-106.5-45.6-261.7-74.3-434.6-74.3c-171.6,0-325.8,28.3-432.2,73.3C674.4,323.5,650,408.9,650,500
		c0,3.8,0.1,7.7,0.1,11.5c101.5,64.5,287,107.7,498.9,107.7c213.2,0,399.7-43.7,500.8-108.9c0.1-3.4,0.1-6.9,0.1-10.3
		C1650,409.4,1625.9,324.3,1583.7,251z"/>
	<path class="st6" d="M1147.4,121.1c-144.6,0-276.5,19.8-376.1,52.4c-60.2,69.8-101.4,156.3-115.7,251.7
		c96.2,62.7,280.4,105.1,491.9,105.1c214.9,0,401.7-43.8,496.5-108.2c-14.6-93.1-54.8-177.6-113.2-246.2
		C1430.3,141.9,1295.5,121.1,1147.4,121.1z"/>
	<path class="st7" d="M1146.2,146.4c-157.6,0-299.4,21.8-398.4,56.5c-42.3,57.2-72.7,123.7-87.6,196
		c88.4,57.9,272.8,97.7,485.9,97.7c218.7,0,407.1-41.9,492.6-102.2c-14.8-68.9-43.8-132.5-83.9-187.7
		C1455.7,169.8,1309.3,146.4,1146.2,146.4z"/>
	<path class="st8" d="M1159.9,138.8c-167.8,0-316.9,24.8-411.5,63.2c-33.6,45.2-59.8,96.3-76.6,151.5
		C743,416,934.7,460.7,1159.9,460.7c209.9,0,390.6-38.8,471.9-94.6c-17.8-64.3-48.1-123.3-88.2-174.4
		C1448.9,159.2,1312.1,138.8,1159.9,138.8z"/>
	<path class="st9" d="M1608.7,300.8c-12.9-29.7-28.6-57.8-46.8-84.2c-80.8-37.4-237.5-62.7-417.5-62.7
		c-168.9,0-317.2,22.3-401.6,55.9c-21.8,30.5-40.2,63.6-54.8,98.7c58.1,49.9,240.4,86.4,456.4,86.4
		C1371.4,394.9,1561.2,354.6,1608.7,300.8z"/>
	<path class="st10" d="M1137.7,351.4c239.3,0,433.4-52.5,433.4-117.2c0-1.4-0.1-2.9-0.3-4.3c0,0,0,0,0,0
		c-21.4-33.3-46.6-63.8-75.1-91c-81.2-20.8-213.9-21.9-358-21.9c-152.4,0-286.5,21.3-363.7,53.5c-11.6,13.3-22.6,27.2-32.8,41.6
		c-0.1,0.1-0.1,0.2-0.2,0.3c-1.2,1.7-2.3,3.4-3.5,5c-0.1,0.2-0.3,0.4-0.4,0.6c-1.1,1.6-2.2,3.2-3.3,4.8c-0.2,0.2-0.3,0.5-0.5,0.7
		c-1.1,1.6-2.1,3.2-3.2,4.8c-0.1,0.2-0.3,0.5-0.4,0.7c-1.1,1.7-2.2,3.4-3.2,5c-0.1,0.1-0.2,0.3-0.3,0.4c-4.7,7.5-9.2,15.1-13.5,22.8
		c0,0,0,0,0,0C752.4,310.9,927.6,351.4,1137.7,351.4z"/>
	<path class="st11" d="M1136.7,262.9c197.1,0,359.2-46.1,378-105c-37.6-40-81.6-73.8-130.5-99.8C1317.7,40.6,1231.2,30,1136.7,30
		c-73,0-141.2,6.3-199.1,17.3c-65,30.5-122.3,74.7-168.3,128.7C811.8,226,960.2,262.9,1136.7,262.9z"/>
	<path class="st12" d="M1148.2,248.9c175.2,0,321.6-43.1,357.2-100.6C1414.8,56.7,1289,0,1150,0c-140.1,0-266.8,57.7-357.6,150.6
		C830.4,206.9,975.2,248.9,1148.2,248.9z"/>
	<path class="st13" d="M1156.3,184.8c145.3,0,266.9-35,297.5-81.9C1369.6,38.4,1264.3,0,1150,0c-110.3,0-212.3,35.7-294.9,96.2
		C878,146.4,1004.2,184.8,1156.3,184.8z"/>
	<path class="st14" d="M1152.3,135.2c122.6,0,222-31.8,222-70.9c0-4.5-1.3-8.9-3.8-13.1C1304,18.4,1229.2,0,1150,0
		c-76.4,0-148.9,17.2-213.7,47.8c-3.9,5.3-6,10.8-6,16.5C930.3,103.5,1029.7,135.2,1152.3,135.2z"/>
	<path class="st15" d="M1013,32.9c0,25.4,62.4,46,139.4,46c77,0,139.4-20.6,139.4-46c0-5.1-2.5-10-7.2-14.6
		C1241.8,6.4,1196.7,0,1150,0c-44.2,0-87,5.7-127.8,16.5C1016.3,21.6,1013,27.1,1013,32.9z"/>
</g>
<g>
	<path class="st16" d="M1614.3,314.1c2.7,6.7,5.3,13.6,7.7,20.4c182.6,39.8,300.2,102.2,300.2,172.4c0,120.2-344.7,217.6-770,217.6
		s-770-97.4-770-217.6c0-69.6,115.5-131.5,295.4-171.4c2.4-6.9,5-13.8,7.7-20.6c-215.7,42-357.2,112.3-357.2,191.9
		c0,128.6,369,232.9,824.1,232.9s824.1-104.3,824.1-232.9C1976.3,426.8,1832.8,356,1614.3,314.1z"/>
	<path class="st17" d="M1603.7,289.7c3.7,8,7.3,16.2,10.6,24.5c218.5,41.9,362,112.6,362,192.9c0,128.6-369,232.9-824.1,232.9
		S328.2,635.6,328.2,507c0-79.6,141.4-149.9,357.2-191.9c3.3-8.3,6.8-16.5,10.6-24.6C435.2,334.5,260.7,415,260.7,507
		c0,139.2,399.2,252,891.6,252s891.6-112.8,891.6-252C2043.8,414.4,1867.1,333.5,1603.7,289.7z"/>
	<path class="st18" d="M1590.2,262.7c4.8,8.8,9.3,17.9,13.6,27c263.3,43.8,440.1,124.7,440.1,217.3c0,139.2-399.2,252-891.6,252
		S260.7,646.2,260.7,507c0-92,174.6-172.5,435.2-216.5c4.3-9.2,8.8-18.3,13.6-27.2c-320.3,44.9-539.9,137.1-539.9,243.5
		c0,150.6,440,272.7,982.7,272.7S2135,657.4,2135,506.8C2135,399.9,1913.1,307.4,1590.2,262.7z"/>
	<path class="st19" d="M1574.1,235c3.2,5.1,6.3,10.3,9.4,15.6c340.6,46,576.1,144.9,576.1,259.4c0,157.1-443.5,284.8-993.5,286.9
		c-0.5,0-1,0-1.5,0c-4.1,0-8.2,0-12.3,0c-4.3,0-8.6,0-12.9,0c-1,0-1.9,0-2.9,0c-3.3,0-6.7,0-10-0.1c-1,0-2.1,0-3.1,0
		c-3.3,0-6.5-0.1-9.8-0.1c-0.8,0-1.7,0-2.5,0c-3.5,0-6.9-0.1-10.4-0.1c-0.6,0-1.2,0-1.9,0c-3.7-0.1-7.4-0.1-11.1-0.2
		c-0.4,0-0.7,0-1.1,0c-482.7-8.8-872.8-114.5-933.5-249.5c-0.1-0.1-0.1-0.3-0.2-0.4c-0.4-1-0.8-1.9-1.2-2.9
		c-0.1-0.3-0.3-0.6-0.4-0.9c-0.3-0.8-0.6-1.6-0.9-2.4c-0.2-0.5-0.3-0.9-0.5-1.4c-0.2-0.6-0.4-1.3-0.6-1.9c-0.2-0.6-0.4-1.2-0.6-1.9
		c-0.1-0.5-0.3-1-0.4-1.5c-0.2-0.8-0.4-1.5-0.6-2.3c-0.1-0.4-0.2-0.7-0.3-1.1c-0.2-0.9-0.4-1.8-0.6-2.6c-0.1-0.2-0.1-0.5-0.1-0.7
		c-0.2-1-0.4-2-0.6-3c0-0.1,0-0.3-0.1-0.4c-0.2-1.1-0.3-2.2-0.5-3.3c0-0.1,0-0.2,0-0.4c-0.1-1.2-0.3-2.4-0.3-3.6
		c0-0.6-0.1-1.1-0.1-1.7c0-0.4,0-0.9-0.1-1.3c0-1-0.1-2.1-0.1-3.2c0,0,0,0,0,0c0,0,0,0,0,0c0-114,233.3-212.4,571.2-258.7
		c3.1-5.3,6.2-10.6,9.5-15.8c-378.1,43.8-618.3,146.1-618.3,269.2c0,171.9,430,302.3,1044.9,302.3s1044.9-130.4,1044.9-302.3
		C2197.2,381.6,1954.9,278.7,1574.1,235z M1232.9,796.1c13.1-0.3,26.2-0.6,39.2-1C1259.1,795.4,1246.1,795.8,1232.9,796.1z"/>
	<path class="st20" d="M1566.1,222.7c6.1,9.1,11.9,18.4,17.4,28c340.6,46,576.1,144.9,576.1,259.4c0,158.5-451,295.9-1007.3,295.9
		S144.9,668.5,144.9,510c0-114,233.3-212.4,571.2-258.7c5.5-9.6,11.3-19,17.5-28.2c-407.1,46-693.7,156.6-693.7,281.6
		c0,171.9,497.5,311.3,1112.4,311.3s1112.4-139.4,1112.4-311.3C2264.6,379.7,1975.7,268.5,1566.1,222.7z"/>
	<path class="st21" d="M1552.9,203.9c3.9,5.3,7.7,10.6,11.3,16c415.7,45.6,710.1,158.2,710.1,289.8c0,172.1-503,311.5-1122.1,311.5
		S30.1,681.9,30.1,509.8c0-131.1,292.2-243.3,705.2-289.3c3.7-5.4,7.5-10.8,11.3-16.1C312.9,250.2,4.5,367.4,4.5,504.7
		c0,177.2,513.9,320.9,1147.8,320.9S2300,682,2300,504.7C2300,366.9,1989.2,249.4,1552.9,203.9z"/>
</g>
</svg>
