<?xml version="1.0" encoding="utf-8"?>
<!-- Generator: Adobe Illustrator 27.7.0, SVG Export Plug-In . SVG Version: 6.00 Build 0)  -->
<svg version="1.1" id="Layer_1" xmlns="http://www.w3.org/2000/svg" xmlns:xlink="http://www.w3.org/1999/xlink" x="0px" y="0px"
	 viewBox="0 0 1000 1000" style="enable-background:new 0 0 1000 1000;" xml:space="preserve">
<style type="text/css">
	.st0{fill:#FFDDA9;}
	.st1{fill:#FF9929;}
	.st2{fill:#FF891D;}
	.st3{fill:#FFD033;}
	.st4{fill:#FDAD20;}
	.st5{fill:#FFE166;}
	.st6{fill:#FFF553;}
	.st7{fill:#FBC735;}
	.st8{fill:#FB7216;}
	.st9{fill:#FBEA57;}
	.st10{fill:#FDD924;}
	.st11{opacity:0.8;}
	.st12{fill:#FAFCE2;}
	.st13{fill:#F7FFE6;}
	.st14{fill:#FAF6F2;}
	.st15{fill:#FBF7EA;}
	.st16{fill:#FFFFD7;}
	.st17{fill:#FEFDE5;}
	.st18{fill:#FFFCEC;}
	.st19{fill:#FCFEE5;}
	.st20{fill:#FFFEC9;}
	.st21{fill:#FFE359;}
	.st22{fill:#FFCD22;}
	.st23{fill:#FDD128;}
	.st24{fill:#FFF6A6;}
</style>
<g id="finals">
	<circle class="st0" cx="500" cy="500" r="500"/>
	<path class="st1" d="M463.5,986.1c128.4,14.2,249.9-32,282.4-57.5c162.8-127.6,243-208,243-418.7c0-272.1-192.4-498.5-464.5-498.5
		c-95.8,0-219.1,29.1-294.7,76.5C107.9,164.1,23.5,287.4,4.2,435c0,0.1,0,0.2,0,0.3c-0.3,2.5-0.6,5.1-0.9,7.6
		c-0.1,0.6-0.1,1.1-0.2,1.7c-0.2,1.8-0.4,3.6-0.6,5.4c-0.1,1.1-0.2,2.1-0.3,3.2c-0.1,1.3-0.2,2.7-0.4,4c-0.1,1.1-0.2,2.3-0.3,3.4
		c-0.1,1.4-0.2,2.8-0.3,4.2c-0.1,1-0.2,2.1-0.2,3.1c-0.1,2.3-0.3,4.5-0.4,6.8c0,1-0.1,1.9-0.1,2.9c-0.1,1.5-0.1,3.1-0.2,4.6
		c0,1-0.1,2-0.1,2.9c0,1.6-0.1,3.3-0.1,4.9c0,0.8,0,1.7,0,2.5c0,2.5-0.1,5-0.1,7.4l0,0c0,2.6,0,5.2,0.1,7.8
		c2.9,189.7,111.3,353.6,269,435.9c19.2,8.3,39.3,15.5,60.3,21.4C371.9,976.9,417.5,981,463.5,986.1z"/>
	<path class="st2" d="M1000,500c0-6.3-0.1-12.5-0.3-18.7c-18.7-34.4-43.2-80.4-49.1-96c-9.8-26.1-81-66.3-179.3-83.7
		s-129.9,20.6-126.1,56.5c3.8,35.9-48.4,84.8-81.9,109.8s-145.8,72.3-129,115.3s-0.5,114.6-16.4,148.8
		c-15.8,34.2-114.6,97.8-108.6,160.9c2.3,24.1-5.4,45.4-15.8,62.5c63,28.6,132.9,44.5,206.6,44.5C776.1,1000,1000,776.1,1000,500z"
		/>
	<path class="st3" d="M710,127.5c-43.8,14.8-42.2,30.5-5.1,55.1c37.1,24.6,67.4,13.3,104.2,35.4c36.8,22.2,71.5-3.7,85.6,29.4
		s-15.4,113.4,24,139s15.9,63,15.9,63h62.9c-18.2-181-132.9-333.5-291.8-405.3C721.6,76.6,736.1,118.7,710,127.5z"/>
	<path class="st4" d="M265.3,500c95-62,41.2-91.8,105.9-123.9s33.7-25.5,67.4-121.7S417.5,149,476.1,113.1
		c54.1-33.1,239.8,16.5,248.6-59.8C657.1,19.2,580.8,0,500,0C226.3,0,4,219.9,0.1,492.6C73.4,514.5,200.2,542.5,265.3,500z"/>
	<path class="st5" d="M102.6,478.6c-13.3-46.9-40.9-21.8-39.4-69.5s22.2-65.5,31.5-94.5c9.4-29,58.4-76.8,94.5-94.5
		c23.4-11.4-42.8-3.1-78.1-34.4C41.6,271.6,0,380.9,0,500c0,37.5,4.1,74,11.9,109.1c3.7-13.1,11.4-32,27.6-49.4
		C68.1,529.2,115.8,525.5,102.6,478.6z"/>
	<path class="st6" d="M314.2,910.2c-35.4-34-71.4-25.7-70.9-70.5s1-48.7-69.9-30.9c-70.9,17.7-24.6-63.5-25.6-68.9
		s-41.8-10.7-36.4-54.3c5-40.2-20.6-74.4-102.3-89.8C38.6,747.5,136.7,874.9,269.9,944C301.2,939.7,335.1,930.2,314.2,910.2z"/>
	<path class="st7" d="M1000,500c0-106.7-33.4-205.6-90.4-286.7c-11.7,32.1-42.7,67.5-3.7,128.2c51.7,80.6,58.1,99.1,28.7,108
		s-79.4,53.7-56.2,65.3s53.2,77,56.1,99.1c3,22.2-50.2,103.4-110.7,135.7s-40.5,49.4-58.7,90.2s-43.3,17.8-56.1,58.6
		c-8.1,25.8-2.6,44.5,2.5,54.8C882,873.5,1000,700.5,1000,500z"/>
</g>
<g id="features">
	<path class="st8" d="M379.4,394.9c0,0,25.1-81.7,113.9-133.7s145,31.1,190,74.1s61.4,69.5,29.1,126.8
		c-32.3,57.3-90.8,59.2-115.6,92.8S584.4,636.6,598,708s-118.6,81.3-134,54.6c-15.5-26.8-13.3-101.6-46.1-120.2s-65.2-98-56.6-148.4
		S379.4,394.9,379.4,394.9z"/>
	<path class="st9" d="M625.4,679.6c-21-12.9-38.6-30.6-52-51.3c-3-4.6-6.4-9.6-10.2-15c-25.3-35.5,54.9-75.9,70.5-66.5
		c15.6,9.5,15.9,82.3,53.6,48c37.7-34.3,38.7-84.2,15.5-109.3c-23.1-25.1,31.9-64.5,38.1-80.8s24-62.9,54.5-63.2
		c30.5-0.3,72.6,56.7,70.9,88.6c-1.6,31.9,24.1,24.4,20.9,44.3c-3.3,19.9-29,13.3-53.4,41.8c-24.4,28.6,6,52.7-10,82.7
		s-13.8,65.8-47.3,71S746,723.6,723,727.4c-23.1,3.9,16.4,50.9,12,61.7c-4.4,10.9-33.4,8.3-54.9-7.7
		C661.7,767.8,675.1,710,625.4,679.6z"/>
	<path class="st10" d="M523.8,207.6c0.1-0.8,0.2-1.5,0.4-2.3c0.5-1.9,1.3-8.7-0.3-33.4c-2.1-32.6,32.2-36.2,42.5-33.6
		c10.3,2.5,9.2,34.5,37.4,33.5c28.2-0.9,41.4-0.3,17.2,31.6c-24.2,32-28.2,21.7-37.4,43.3s17.2,49.4-2.1,54.2s-21.4-17.8-41.3-15.1
		c-19.9,2.7-48.3-1.1-61.3-0.9S502,275,508.8,258c6.5-16.5,16.4-31.8,14.9-46.9c-0.1-0.8-0.1-1.7,0-2.5
		C523.7,208.4,523.7,208,523.8,207.6z"/>
	<g class="st11">
		<path class="st12" d="M356.4,459.9c7.9-1.4,13.6-8.4,13.4-16.4c-0.2-7.5,1-15.7,6.8-18.9c8.1-4.5,21.3,2.4,28.6,9.5
			c5.1,5,11.8,8.2,18.9,8.7c10.9,0.9,24.7,3.6,27.7,11.2c5.1,13,9.9,30.8-8.2,42.4c-15.2,9.8-33.8,4.8-45.1-9.8
			c-3.6-4.6-9.6-6.4-15.1-4.6c-5.8,2-14.2,3.3-24.6,1.4c-13.2-2.5-23.2-14.9-18.5-21.2C342.4,459.3,345.8,461.8,356.4,459.9z"/>
		<path class="st13" d="M677.4,610.7c-1.7,1.6-3.3,3.3-4.6,5.2c-4.5,6.5-9.4,17.5,0.8,11.6c9.6-5.6,13.9,6.4,14.1-4
			c0.4-17.8,1.9-26.4,8.4-32.3c6.5-5.8,2.2-16.4-8.7,3.5C681.1,606,678.5,609.7,677.4,610.7z"/>
		<path class="st14" d="M426.3,717.8c0.4-1.8-0.9-3.6-2.8-3.7c-2.9-0.1-6.1-0.9-5.7-4.2c0.8-5.6,3.3-1.2,5.8-7.5
			c2.5-6.2,13.2,1.2,17.7,4.6c4.5,3.3,15.9,12.4,3.7,10.8s-7.2,13.3-17.1,8.5C425.3,725.1,425.6,721,426.3,717.8z"/>
		<path class="st15" d="M203.6,849.5c0,0-3.5-6.7,0-8.9s8.4,0.3,9.8,4.4c1.4,4.2-0.2,8.4-2.8,9.4
			C208.1,855.5,203.6,849.5,203.6,849.5z"/>
		<path class="st16" d="M724.6,692.1c0,0,1.1-4.8,4.3-3.3s3.2,4.2,1,7s-0.8,13.4,3.9,10.9s8.3-7.6,5.3-8.9c-3-1.3-1.1-3.5,1.1-5.9
			c2.2-2.4-0.1-6-3.6-6s-8,1.1-9.8-5.7s-0.9-13-0.8-15.4c0.1-2.4-9.3,0.8-8.4,4.1c0.9,3.3,6.7,6.3,3.9,11.9
			C718.6,686.4,718.9,697.6,724.6,692.1z"/>
		<path class="st17" d="M738.1,516.7c-2.9-1.2-3.9-4.9-2.5-7.7c1.2-2.3,3.1-4.7,6.5-6.4c8.7-4.5,15.2-0.7,14.7,5.8
			c-0.5,6.5-0.7,20.4-7,23c-6.3,2.6-11.3-5.6-10.8-11.2C739.2,517.9,738.8,517,738.1,516.7z"/>
		<path class="st18" d="M804.6,490c0,0-2.5,5.8-7.8,5s6.8-10.2,9-11.4s5.3-5.4,3.5-9.1s1-7.2-8.2-8.7s5.6-5.7,11.7-2.6
			c6.1,3.1,13.1,7.3,8.3,12.9C818.8,478.8,817.1,475.5,804.6,490z"/>
		<path class="st19" d="M541.9,279.5c0,0,7.9,10.6,17.8,4.1c9.9-6.5-3.8-21.9-6.2-21.9S534,256.3,541.9,279.5z"/>
		<path class="st20" d="M758.8,411.6c0,0,10.3-20.9,21.2-10.9c10.9,9.9,7.5-26,16.4-29.4s8.6,13,21.9,37.6
			c13.3,24.6-0.3,31.8-10.9,29.4C796.7,435.9,758.8,449.2,758.8,411.6z"/>
	</g>
	<path class="st21" d="M359,591.8c0,0-22.5-11.1-13.7-37.8s-13.4-69.1-54.1-33.9s32.9,33.9-24.8,80.2c0,0-6.6,6.8-64.4-14.3
		c-57.8-21.2-49.3,10.7,2.5,20.3s74.6,23.3,88-3.4s43-25.1,46.6,13S387.7,615.9,359,591.8z"/>
	<path class="st22" d="M413.1,749.5c0,0-19.2-8.3-17.6-35.7c1.6-27.5,11.1-24.9,22.3-24.2s8.9,22.1,50,10.6s22.5,29.8,12.4,33.8
		C470.1,737.8,450.6,748.2,413.1,749.5z"/>
	<path class="st23" d="M404,782.8c0,0,10.8-4.9,11.1-26.1s35.8,0.7,48.9,5.9c13,5.2,5.4,5.5-7.4,20.2s2.8,42-6,43.7
		c-8.8,1.6-29.7,9.1-46.6-0.7s-26.4-9.4-3.3-36.6"/>
	<path class="st24" d="M582.1,209.1c0,0-6.5,15.4-13.4,2.3c-6.9-13.1,5.6-24.5,16.5-23.2C596,189.6,592.5,202.2,582.1,209.1z"/>
</g>
</svg>
