<?xml version="1.0" encoding="utf-8"?>
<!-- Generator: Adobe Illustrator 27.7.0, SVG Export Plug-In . SVG Version: 6.00 Build 0)  -->
<svg version="1.1" id="finals" xmlns="http://www.w3.org/2000/svg" xmlns:xlink="http://www.w3.org/1999/xlink" x="0px" y="0px"
	 viewBox="0 0 1000 1000" style="enable-background:new 0 0 1000 1000;" xml:space="preserve">
<style type="text/css">
	.st0{fill:#E4D9CF;}
	.st1{opacity:0.65;fill:#CDC5BE;}
	.st2{opacity:0.65;fill:#F2F7F9;}
	.st3{opacity:0.65;fill:#DCB891;}
	.st4{opacity:0.65;fill:#E0DFE2;}
	.st5{opacity:0.65;fill:#ACAFB2;}
	.st6{opacity:0.65;fill:#DEE3EB;}
</style>
<circle class="st0" cx="500" cy="500" r="500"/>
<path class="st1" d="M632.4,104.4c43.8-13,89.7-25.7,122.5-34.7c-5.6-3.3-11.3-6.6-17.1-9.7c-47.6,2.6-115.1,7.4-176.9,16.3
	c-108.2,15.5-276.8,66.4-358.5,131.7c-76.8,61.5-97.6,98.1-185,160.4c-3.3,12.1-6.1,24.5-8.5,37l131.2-63.6c0,0,32.4-12,76.9-20.4
	c25.8-16.2,50.3-32.8,71.2-49C392.9,191.7,551.7,128.4,632.4,104.4z"/>
<path class="st2" d="M357.7,320.4c-46.1-11.7-98.7-6.9-140.7,1c-44.4,8.4-76.9,20.4-76.9,20.4L9,405.4l0,0C3.1,436,0,467.7,0,500
	c0,26.2,2,52,5.9,77.1c10.5-2.8,24.4-7.5,41.5-15.9c25.4-26.5,60.1-57.8,101.9-83.6c91.9-56.7,138.9-100.1,183.8-124.6
	c14.2-7.8,29.6-17.1,46.2-24.9C374.7,325.5,367.6,322.9,357.7,320.4z"/>
<path class="st3" d="M504.7,329.6c-48.2-28.3-89.6-18.4-125.4-1.5c-16.6,7.8-31.9,17.2-46.2,24.9c-44.9,24.5-91.9,67.9-183.8,124.6
	c-41.9,25.8-76.5,57.1-101.9,83.6c-16.2,16.9-28.7,31.9-36.7,42.1c7.4,35.2,18.5,69.1,32.9,101.2c29.8-2.3,77.4-0.6,113.9,26.4
	c57.2,42.4,123.1-30.6,159.3-69.4c36.3-38.8,63.8-83.7,95-151.1c31.1-67.4,26-43.9,115.4-63.2C616.6,427.8,575.2,371,504.7,329.6z"
	/>
<path class="st4" d="M600.7,500c-76.6,34.6-150.6,101.3-193,124.2c-42.4,23-110.3,95-67.4,99.1c42.9,4.1,67.4-51.1,67.4-51.1
	c86.3-92.4,242.2-148.9,311.5-181.8c118.9-56.3,222.6-77.6,271.8-85.1c-8.7-45.4-23.5-88.6-43.6-128.7
	c-36.3,11.8-92.9,34.8-154.7,77.4C762,375.3,677.3,465.4,600.7,500z"/>
<path class="st5" d="M989.3,603.3c-0.3,1.3-0.6,2.6-0.8,3.9C988.7,606,989,604.7,989.3,603.3z"/>
<path class="st5" d="M990.7,596.2c6.1-31.1,9.3-63.3,9.3-96.2c0-17.5-0.9-34.8-2.7-51.8c-52.3,14.1-197.4,75.1-318,169.9
	c-60.7,47.7-93.1,82.6-110.4,106.8c58-33.1,182.3-93.8,229.7-103.6C854.4,609.8,936.4,601.1,990.7,596.2z"/>
<path class="st5" d="M990.6,597c-0.3,1.3-0.5,2.7-0.8,4C990,599.7,990.3,598.4,990.6,597z"/>
<path class="st6" d="M990.8,596.2C990.7,596.2,990.7,596.2,990.8,596.2c-0.1,0.3-0.1,0.6-0.2,0.8
	C990.6,596.7,990.7,596.5,990.8,596.2z"/>
<path class="st6" d="M987.9,609.7c0.2-0.8,0.4-1.6,0.5-2.4C988.3,608.1,988.1,608.9,987.9,609.7z"/>
<path class="st6" d="M989.8,601.1c-0.2,0.8-0.3,1.5-0.5,2.3C989.5,602.6,989.6,601.8,989.8,601.1z"/>
<path class="st6" d="M798.8,621.3C751.4,631.1,627,691.7,569,724.9c-6.3,3.6-11.8,6.8-16.3,9.7c-46.5,29.1-84.8,94-124.6,146
	c-30.4,39.7-31.1,88.3-29.7,109.1c30.5,6.3,62.1,9.8,94.3,10.3c2.6-33.3,3.8-61.8,51.8-138.8c46.3-74.3,159.7-131.9,238.4-164.1
	c49.6-20.3,137.9-41.6,196.5-54.6c2.9-9.8,5.5-19.8,7.9-29.9c0.2-1,0.4-1.9,0.7-2.9c0.2-0.8,0.4-1.6,0.5-2.4
	c0.3-1.3,0.6-2.6,0.8-3.9c0.2-0.8,0.3-1.5,0.5-2.3c0.3-1.3,0.5-2.7,0.8-4c0.1-0.3,0.1-0.6,0.2-0.8
	C936.4,601.1,854.4,609.8,798.8,621.3z"/>
</svg>
